<?xml version="1.0" encoding="utf-8"?>
<!-- Generator: Adobe Illustrator 27.9.0, SVG Export Plug-In . SVG Version: 6.00 Build 0)  -->
<svg version="1.1" id="图层_1" xmlns="http://www.w3.org/2000/svg" xmlns:xlink="http://www.w3.org/1999/xlink" x="0px" y="0px"
	 viewBox="0 0 523.45 80.58" style="enable-background:new 0 0 523.45 80.58;" xml:space="preserve">
<style type="text/css">
	.st0{fill:#FFFFFF;}
	.st1{fill:url(#SVGID_1_);}
	.st2{fill:url(#SVGID_00000083069859910822318650000014479526837746077356_);}
	.st3{fill:url(#SVGID_00000119834131730137337180000001871520327078507394_);}
	.st4{fill:url(#SVGID_00000137133438773337953840000000392768555399887792_);}
	.st5{fill:url(#SVGID_00000117673093310117135920000007313409245001046415_);}
	.st6{fill:url(#SVGID_00000128467220623031511550000010420724804208786104_);}
	.st7{fill:url(#SVGID_00000182525558021800036280000014606482687488467385_);}
	.st8{fill:url(#SVGID_00000134249362672610659490000011926562366794843832_);}
	.st9{fill:url(#SVGID_00000085210785911843527890000018356706184285426051_);}
	.st10{fill:url(#SVGID_00000036234599323463318720000011131043834371965879_);}
	.st11{fill:url(#SVGID_00000127761894063871774840000003130930479083429767_);}
	.st12{fill:url(#SVGID_00000152244567056609884170000018090305004849833127_);}
	.st13{fill:url(#SVGID_00000017501857457044478130000004572481591763571375_);}
	.st14{fill:url(#SVGID_00000062164906325734590540000011688948389907925935_);}
	.st15{fill:url(#SVGID_00000181770753597451838090000006174017317466147983_);}
	.st16{fill:url(#SVGID_00000180341884066571820970000002234551495311263126_);}
	.st17{fill:url(#SVGID_00000160895423469161603770000017593131112558943673_);}
	.st18{fill:url(#SVGID_00000010282297147327609680000016951236960092840580_);}
	.st19{fill:url(#SVGID_00000003794648451440161790000010269731193020037000_);}
	.st20{fill:url(#SVGID_00000040575640973665932300000009296363364975536512_);}
</style>
<g>
	<g>
		<g>
			<linearGradient id="SVGID_1_" gradientUnits="userSpaceOnUse" x1="83.9743" y1="-11.793" x2="83.9743" y2="50.1652">
				<stop  offset="0" style="stop-color:#2FE2F6"/>
				<stop  offset="0.5" style="stop-color:#008BFB"/>
				<stop  offset="1" style="stop-color:#B445FF"/>
			</linearGradient>
			<circle class="st1" cx="83.97" cy="9.99" r="9.99"/>
			<g>
				
					<linearGradient id="SVGID_00000111159986475233202640000011718694752217774520_" gradientUnits="userSpaceOnUse" x1="83.6846" y1="-11.793" x2="83.6846" y2="50.1652">
					<stop  offset="0" style="stop-color:#2FE2F6"/>
					<stop  offset="0.5" style="stop-color:#008BFB"/>
					<stop  offset="1" style="stop-color:#B445FF"/>
				</linearGradient>
				<path style="fill:url(#SVGID_00000111159986475233202640000011718694752217774520_);" d="M83.68,80.58
					c-4.81,0-8.72-3.9-8.72-8.72V32.6c0-4.81,3.9-8.72,8.72-8.72c4.81,0,8.72,3.9,8.72,8.72v39.25
					C92.4,76.67,88.5,80.58,83.68,80.58z"/>
			</g>
			<g>
				
					<linearGradient id="SVGID_00000176010668176584869380000014901724986483650212_" gradientUnits="userSpaceOnUse" x1="113.0257" y1="14.0645" x2="9.754" y2="76.2205">
					<stop  offset="0" style="stop-color:#2FE2F6"/>
					<stop  offset="0.5" style="stop-color:#008BFB"/>
					<stop  offset="1" style="stop-color:#B445FF"/>
				</linearGradient>
				<path style="fill:url(#SVGID_00000176010668176584869380000014901724986483650212_);" d="M91.41,28.56
					c-2.23-4.26-7.5-5.91-11.77-3.68l-22.73,11.9l6.91,16.06l23.91-12.52C91.99,38.09,93.64,32.83,91.41,28.56z"/>
				
					<linearGradient id="SVGID_00000095336490293729194340000016803839384159920816_" gradientUnits="userSpaceOnUse" x1="106.954" y1="3.9765" x2="3.6824" y2="66.1325">
					<stop  offset="0" style="stop-color:#2FE2F6"/>
					<stop  offset="0.5" style="stop-color:#008BFB"/>
					<stop  offset="1" style="stop-color:#B445FF"/>
				</linearGradient>
				<path style="fill:url(#SVGID_00000095336490293729194340000016803839384159920816_);" d="M41.18,5.3C39.8,2.08,36.65,0,33.16,0
					c-0.05,0-0.1,0-0.15,0c-3.55,0.06-6.7,2.26-7.98,5.57L0.59,68.71c-1.31,3.39-0.39,7.23,2.32,9.65c2.71,2.42,6.63,2.9,9.85,1.22
					l31.69-16.59l-6.83-16.1l-12.4,6.49l8.33-21.53l18.52,43.42c1.41,3.31,4.63,5.3,8.02,5.3c1.14,0,2.3-0.23,3.42-0.7
					c4.43-1.89,6.49-7.01,4.6-11.44L41.18,5.3z"/>
			</g>
		</g>
	</g>
	<g>
		<path d="M135.2,17.82c0.38-1.97,1.55-2.96,3.52-2.96h12.75c3.52,0,6.67,0.43,9.44,1.3c2.77,0.87,5.12,2.15,7.04,3.84
			c1.93,1.69,3.4,3.76,4.44,6.2c1.03,2.44,1.55,5.21,1.55,8.31c0,4.18-0.72,8.11-2.15,11.8c-1.43,3.69-3.45,6.9-6.06,9.65
			c-2.61,2.75-5.71,4.92-9.3,6.52c-3.59,1.6-7.57,2.39-11.94,2.39H129c-1.93,0-2.7-0.99-2.32-2.96L135.2,17.82z M144.21,57.12
			c3.01,0,5.76-0.57,8.28-1.7c2.51-1.13,4.67-2.69,6.48-4.67c1.81-1.98,3.2-4.29,4.19-6.93c0.99-2.64,1.48-5.49,1.48-8.56
			c0-4.15-1.23-7.3-3.7-9.44c-2.47-2.15-5.83-3.22-10.11-3.22h-7.47l-6.76,34.51H144.21z"/>
		<path d="M174.57,56.35c0-2.68,0.78-4.9,2.32-6.66c1.55-1.76,3.49-3.16,5.81-4.19c2.32-1.03,4.85-1.76,7.57-2.18
			c2.72-0.42,5.26-0.63,7.61-0.63h1.76c0.19-1.08,0.28-1.95,0.28-2.61c0-1.41-0.46-2.52-1.37-3.35c-0.92-0.82-2.34-1.23-4.26-1.23
			c-1.69,0-3.24,0.27-4.65,0.81c-1.41,0.54-2.49,1-3.24,1.37c-0.8,0.33-1.54,0.42-2.22,0.28c-0.68-0.14-1.21-0.77-1.59-1.9
			l-0.42-1.34c-0.52-1.64,0.05-2.89,1.69-3.73c0.52-0.28,1.2-0.59,2.04-0.92c0.85-0.33,1.8-0.63,2.85-0.92s2.19-0.53,3.42-0.74
			c1.22-0.21,2.47-0.32,3.73-0.32c1.55,0,3.1,0.19,4.65,0.56c1.55,0.38,2.95,1,4.19,1.87c1.24,0.87,2.24,2.01,2.99,3.42
			c0.75,1.41,1.13,3.12,1.13,5.14c0,0.61-0.04,1.2-0.11,1.76c-0.07,0.56-0.15,1.17-0.25,1.83l-3.73,19.23
			c-0.42,1.97-1.6,2.96-3.52,2.96h-2.39c-0.99,0-1.68-0.27-2.08-0.81c-0.4-0.54-0.48-1.26-0.25-2.15l0.28-1.41
			c0.05-0.28,0.09-0.52,0.14-0.7c0.05-0.19,0.09-0.35,0.14-0.49c0.05-0.14,0.09-0.26,0.14-0.35h-0.14
			c-0.99,1.41-1.97,2.54-2.96,3.38c-0.99,0.84-2.22,1.62-3.7,2.32c-1.48,0.7-3.21,1.06-5.18,1.06c-1.36,0-2.69-0.2-3.98-0.6
			c-1.29-0.4-2.43-0.99-3.42-1.76c-0.99-0.77-1.78-1.75-2.39-2.92C174.88,59.26,174.57,57.9,174.57,56.35z M183.59,55.01
			c0,1.08,0.37,2,1.13,2.75c0.75,0.75,1.9,1.13,3.45,1.13c1.22,0,2.41-0.29,3.56-0.88c1.15-0.59,2.18-1.35,3.1-2.29
			c0.92-0.94,1.69-1.97,2.32-3.1c0.63-1.13,1.07-2.25,1.3-3.38l0.21-1.13h-1.97c-1.22,0-2.6,0.09-4.12,0.28
			c-1.53,0.19-2.96,0.53-4.3,1.02c-1.34,0.49-2.45,1.19-3.34,2.08C184.03,52.38,183.59,53.56,183.59,55.01z"/>
		<path d="M219.65,36.55h-1.9c-1.93,0-2.7-1.03-2.32-3.1l0.28-1.27c0.33-1.83,1.48-2.75,3.45-2.75h2.11l1.41-7.33
			c0.42-1.97,1.6-2.96,3.52-2.96h2.82c1.97,0,2.77,0.99,2.39,2.96l-1.48,7.33h5.28c0.94,0,1.62,0.28,2.04,0.85
			c0.42,0.56,0.52,1.32,0.28,2.25l-0.21,1.27c-0.33,1.83-1.48,2.75-3.45,2.75h-5.28l-2.75,13.95c-0.24,1.36-0.25,2.45-0.04,3.28
			c0.21,0.82,0.55,1.48,1.02,1.97c0.47,0.49,1.02,0.85,1.66,1.06c0.63,0.21,1.25,0.34,1.87,0.39c1.08,0.09,1.81,0.38,2.18,0.84
			c0.37,0.47,0.45,1.2,0.21,2.18l-0.42,2.18c-0.24,1.08-0.69,1.82-1.37,2.22c-0.68,0.4-1.63,0.6-2.85,0.6c-1.6,0-3.18-0.24-4.75-0.7
			c-1.57-0.47-2.94-1.22-4.09-2.25c-1.15-1.03-2-2.38-2.54-4.05c-0.54-1.67-0.57-3.72-0.11-6.16L219.65,36.55z"/>
		<path d="M236.7,56.35c0-2.68,0.78-4.9,2.32-6.66c1.55-1.76,3.49-3.16,5.81-4.19c2.32-1.03,4.85-1.76,7.57-2.18
			c2.72-0.42,5.26-0.63,7.61-0.63h1.76c0.19-1.08,0.28-1.95,0.28-2.61c0-1.41-0.46-2.52-1.37-3.35c-0.92-0.82-2.34-1.23-4.26-1.23
			c-1.69,0-3.24,0.27-4.65,0.81c-1.41,0.54-2.49,1-3.24,1.37c-0.8,0.33-1.54,0.42-2.22,0.28c-0.68-0.14-1.21-0.77-1.59-1.9
			l-0.42-1.34c-0.52-1.64,0.05-2.89,1.69-3.73c0.52-0.28,1.2-0.59,2.04-0.92c0.85-0.33,1.8-0.63,2.85-0.92
			c1.06-0.28,2.19-0.53,3.42-0.74c1.22-0.21,2.47-0.32,3.73-0.32c1.55,0,3.1,0.19,4.65,0.56c1.55,0.38,2.95,1,4.19,1.87
			c1.24,0.87,2.24,2.01,2.99,3.42c0.75,1.41,1.13,3.12,1.13,5.14c0,0.61-0.04,1.2-0.11,1.76c-0.07,0.56-0.15,1.17-0.25,1.83
			l-3.73,19.23c-0.42,1.97-1.6,2.96-3.52,2.96H261c-0.99,0-1.68-0.27-2.08-0.81c-0.4-0.54-0.48-1.26-0.25-2.15l0.28-1.41
			c0.05-0.28,0.09-0.52,0.14-0.7c0.05-0.19,0.09-0.35,0.14-0.49c0.05-0.14,0.09-0.26,0.14-0.35h-0.14
			c-0.99,1.41-1.97,2.54-2.96,3.38c-0.99,0.84-2.22,1.62-3.7,2.32c-1.48,0.7-3.21,1.06-5.18,1.06c-1.36,0-2.69-0.2-3.98-0.6
			c-1.29-0.4-2.43-0.99-3.42-1.76c-0.99-0.77-1.78-1.75-2.39-2.92C237.01,59.26,236.7,57.9,236.7,56.35z M245.71,55.01
			c0,1.08,0.37,2,1.13,2.75c0.75,0.75,1.9,1.13,3.45,1.13c1.22,0,2.41-0.29,3.56-0.88c1.15-0.59,2.18-1.35,3.1-2.29
			c0.92-0.94,1.69-1.97,2.32-3.1c0.63-1.13,1.07-2.25,1.3-3.38l0.21-1.13h-1.97c-1.22,0-2.6,0.09-4.12,0.28
			c-1.53,0.19-2.96,0.53-4.3,1.02c-1.34,0.49-2.45,1.19-3.34,2.08C246.16,52.38,245.71,53.56,245.71,55.01z"/>
		<path d="M281.07,45.29v-1.06c0-1.97,0.99-2.96,2.96-2.96h12.33V27.54c0-1.97,0.96-2.96,2.89-2.96h1.41c1.97,0,2.96,0.99,2.96,2.96
			v13.74h12.26c1.97,0,2.96,0.99,2.96,2.96v1.06c0,1.97-0.99,2.96-2.96,2.96h-12.26v13.66c0,1.97-0.99,2.96-2.96,2.96h-1.41
			c-1.93,0-2.89-0.99-2.89-2.96V48.25h-12.33C282.06,48.25,281.07,47.26,281.07,45.29z"/>
		<path d="M347.99,17.26c0.85-1.6,2.11-2.39,3.8-2.39h5.21c1.69,0,2.63,0.8,2.82,2.39l7.04,44.24c0.14,1.03-0.06,1.86-0.6,2.47
			c-0.54,0.61-1.35,0.92-2.43,0.92h-3.24c-1.69,0-2.63-0.8-2.82-2.39l-1.48-10.42h-17.54l-5.5,10.35c-0.84,1.64-2.09,2.47-3.73,2.47
			h-3.52c-1.08,0-1.77-0.3-2.08-0.92c-0.3-0.61-0.2-1.43,0.32-2.47L347.99,17.26z M355.46,44.66l-1.9-13.38
			c-0.1-0.7-0.16-1.5-0.21-2.39c-0.05-0.89-0.1-1.74-0.14-2.54c-0.05-0.89-0.07-1.83-0.07-2.82h-0.14c-0.38,0.99-0.78,1.93-1.2,2.82
			c-0.38,0.8-0.75,1.64-1.13,2.54c-0.38,0.89-0.75,1.69-1.13,2.39l-7.18,13.38H355.46z"/>
		<path d="M382.01,17.82c0.42-1.97,1.6-2.96,3.52-2.96h3.24c1.93,0,2.7,0.99,2.33,2.96l-8.59,44.09c-0.38,1.97-1.55,2.96-3.52,2.96
			h-3.17c-1.93,0-2.7-0.99-2.32-2.96L382.01,17.82z"/>
		<path d="M420.26,17.82c0.42-1.97,1.6-2.96,3.52-2.96h3.24c1.93,0,2.7,0.99,2.33,2.96l-7.61,39.3h18.67c0.94,0,1.61,0.29,2.01,0.87
			c0.4,0.58,0.5,1.34,0.32,2.27l-0.35,1.95c-0.33,1.77-1.5,2.65-3.52,2.65h-24.79c-1.93,0-2.7-0.99-2.32-2.96L420.26,17.82z"/>
		<path d="M445.62,56.35c0-2.68,0.78-4.9,2.32-6.66c1.55-1.76,3.49-3.16,5.81-4.19c2.32-1.03,4.85-1.76,7.57-2.18
			c2.72-0.42,5.26-0.63,7.61-0.63h1.76c0.19-1.08,0.28-1.95,0.28-2.61c0-1.41-0.46-2.52-1.37-3.35c-0.92-0.82-2.34-1.23-4.26-1.23
			c-1.69,0-3.24,0.27-4.65,0.81c-1.41,0.54-2.49,1-3.24,1.37c-0.8,0.33-1.54,0.42-2.22,0.28c-0.68-0.14-1.21-0.77-1.59-1.9
			l-0.42-1.34c-0.52-1.64,0.05-2.89,1.69-3.73c0.52-0.28,1.2-0.59,2.04-0.92c0.85-0.33,1.8-0.63,2.85-0.92
			c1.06-0.28,2.19-0.53,3.42-0.74c1.22-0.21,2.47-0.32,3.73-0.32c1.55,0,3.1,0.19,4.65,0.56c1.55,0.38,2.95,1,4.19,1.87
			c1.24,0.87,2.24,2.01,2.99,3.42c0.75,1.41,1.13,3.12,1.13,5.14c0,0.61-0.04,1.2-0.11,1.76c-0.07,0.56-0.15,1.17-0.25,1.83
			l-3.73,19.23c-0.42,1.97-1.6,2.96-3.52,2.96h-2.39c-0.99,0-1.68-0.27-2.08-0.81c-0.4-0.54-0.48-1.26-0.25-2.15l0.28-1.41
			c0.05-0.28,0.09-0.52,0.14-0.7c0.05-0.19,0.09-0.35,0.14-0.49c0.05-0.14,0.09-0.26,0.14-0.35h-0.14
			c-0.99,1.41-1.97,2.54-2.96,3.38c-0.99,0.84-2.22,1.62-3.7,2.32c-1.48,0.7-3.21,1.06-5.18,1.06c-1.36,0-2.69-0.2-3.98-0.6
			c-1.29-0.4-2.43-0.99-3.42-1.76c-0.99-0.77-1.78-1.75-2.39-2.92C445.92,59.26,445.62,57.9,445.62,56.35z M454.63,55.01
			c0,1.08,0.37,2,1.13,2.75c0.75,0.75,1.9,1.13,3.45,1.13c1.22,0,2.41-0.29,3.56-0.88c1.15-0.59,2.18-1.35,3.1-2.29
			c0.92-0.94,1.69-1.97,2.32-3.1c0.63-1.13,1.07-2.25,1.3-3.38l0.21-1.13h-1.97c-1.22,0-2.6,0.09-4.12,0.28
			c-1.53,0.19-2.96,0.53-4.3,1.02c-1.34,0.49-2.45,1.19-3.34,2.08C455.08,52.38,454.63,53.56,454.63,55.01z"/>
		<path d="M493.09,17.82c0.37-1.97,1.55-2.96,3.52-2.96h3.03c1.97,0,2.75,0.99,2.32,2.96l-2.46,13.03c-0.1,0.33-0.18,0.66-0.25,0.99
			c-0.07,0.33-0.15,0.66-0.25,0.99c-0.09,0.38-0.19,0.73-0.28,1.06h0.14c1.17-1.69,2.7-3.08,4.58-4.16
			c1.88-1.08,4.06-1.62,6.55-1.62c2.07,0,3.93,0.35,5.6,1.06c1.67,0.7,3.07,1.71,4.23,3.03c1.15,1.32,2.04,2.91,2.68,4.79
			c0.63,1.88,0.95,3.97,0.95,6.27c0,3.33-0.56,6.37-1.69,9.12c-1.13,2.75-2.61,5.11-4.44,7.08c-1.83,1.97-3.91,3.51-6.23,4.61
			c-2.33,1.1-4.68,1.66-7.08,1.66c-2.54,0-4.73-0.55-6.59-1.66c-1.86-1.1-3.25-2.62-4.19-4.54h-0.14v0.49
			c0,0.14-0.01,0.29-0.04,0.46c-0.02,0.17-0.06,0.36-0.11,0.6l-0.28,1.48c-0.1,0.66-0.43,1.21-1.02,1.66
			c-0.59,0.45-1.37,0.67-2.36,0.67h-2.39c-1.93,0-2.7-0.99-2.32-2.96L493.09,17.82z M495.77,49.97c0,2.39,0.56,4.35,1.69,5.9
			c1.13,1.55,2.89,2.32,5.28,2.32c1.41,0,2.82-0.33,4.23-0.98c1.41-0.65,2.65-1.6,3.73-2.84c1.08-1.24,1.96-2.72,2.64-4.42
			c0.68-1.71,1.02-3.62,1.02-5.72c0-2.67-0.63-4.73-1.9-6.18c-1.27-1.45-2.98-2.18-5.14-2.18c-1.6,0-3.09,0.39-4.47,1.16
			c-1.39,0.77-2.61,1.81-3.66,3.12c-1.06,1.31-1.89,2.81-2.5,4.49C496.08,46.31,495.77,48.09,495.77,49.97z"/>
	</g>
</g>
</svg>
